# AST/ASF file generated using VICON BodyLanguage
# -----------------------------------------------
:version 1.10
:name VICON
:units
  mass 1.0
  length 0.45
  angle deg
:documentation
   .ast/.asf automatically generated from VICON data using
   VICON BodyBuilder and BodyLanguage model FoxedUp or BRILLIANT.MOD
:root
   order TX TY TZ RX RY RZ
   axis XYZ
   position 0 0 0  
   orientation 0 0 0 
:bonedata
  begin
     id 1 
     name lhipjoint
     direction 0.528046 -0.759594 0.379717 
     length 2.39752 
     axis 0 0 0  XYZ
  end
  begin
     id 2 
     name lfemur
     direction 0.34202 -0.939693 0  
     length 7.31175  
     axis 0 0 20  XYZ
    dof rx ry rz
    limits (-160.0 20.0)
           (-70.0 70.0)
           (-60.0 70.0)
  end
  begin
     id 3 
     name ltibia
     direction 0.34202 -0.939693 0   
     length 7.52482   
     axis 0 0 20   XYZ
    dof rx
    limits (-10.0 170.0)
  end
  begin
     id 4 
     name lfoot
     direction 0.0675379 -0.185559 0.980309   
     length 2.00961   
     axis -90 7.62852e-016 20   XYZ
    dof rx rz
    limits (-45.0 90.0)
           (-70.0 20.0)
  end
  begin
     id 5 
     name ltoes
     direction 1.5352e-011 -4.22286e-011 1   
     length 1.01383   
     axis -90 7.62852e-016 20   XYZ
    dof rx
    limits (-90.0 20.0)
  end
  begin
     id 6 
     name rhipjoint
     direction -0.510274 -0.769251 0.384544   
     length 2.36742  
     axis 0 0 0  XYZ 
  end
  begin
     id 7 
     name rfemur
     direction -0.34202 -0.939693 0   
     length 7.45325   
     axis 0 0 -20   XYZ
    dof rx ry rz
    limits (-160.0 20.0)
           (-70.0 70.0)
           (-70.0 60.0)
  end
  begin
     id 8 
     name rtibia
     direction -0.34202 -0.939693 0   
     length 7.49587   
     axis 0 0 -20   XYZ
    dof rx
    limits (-10.0 170.0)
 end
 begin
     id 9 
     name rfoot
     direction -0.106475 -0.292536 0.950308   
     length 2.20898  
     axis -90 -7.62852e-016 -20   XYZ
    dof rx rz
    limits (-45.0 90.0)
           (-20.0 70.0)
  end
  begin
     id 10 
     name rtoes
     direction -1.53597e-011 -4.22023e-011 1   
     length 1.10065   
     axis -90 -7.62852e-016 -20   XYZ
    dof rx
    limits (-90.0 20.0)
  end
  begin
     id 11 
     name lowerback
     direction 0.0260024 0.998026 -0.0571652   
     length 2.11214   
     axis 0 0 0   XYZ
    dof rx ry rz
    limits (-20.0 45.0)
           (-30.0 30.0)
           (-30.0 30.0)
  end
  begin
     id 12 
     name upperback
     direction 0.0216202 0.999542 -0.0211766   
     length 2.11689   
     axis 0 0 0   XYZ
    dof rx ry rz
    limits (-20.0 45.0)
           (-30.0 30.0)
           (-30.0 30.0)
  end
  begin
     id 13 
     name thorax
     direction 0.00883312 0.999944 0.00589057   
     length 2.11821   
     axis 0 0 0   XYZ
    dof rx ry rz
    limits (-20.0 45.0)
           (-30.0 30.0)
           (-30.0 30.0)
  end
  begin
     id 14 
     name lowerneck
     direction -0.059386 0.994433 0.0870401   
     length 1.81176   
     axis 0 0 0   XYZ
    dof rx ry rz
    limits (-20.0 45.0)
           (-30.0 30.0)
           (-30.0 30.0)
  end
  begin
     id 15 
     name upperneck
     direction 0.0506457 0.97328 -0.223967   
     length 1.82382   
     axis 0 0 0   XYZ
    dof rx ry rz
    limits (-20.0 45.0)
           (-30.0 30.0)
           (-30.0 30.0)
  end
  begin
     id 16
     name head
     direction 0.0205902 0.996147 -0.0852487  
     length 1.84805  
     axis 0 0 0   XYZ
    dof rx ry rz
    limits (-20.0 45.0)
           (-30.0 30.0)
           (-30.0 30.0)
  end
  begin
     id 17 
     name lclavicle
     direction 0.949493 0.303881 -0.0782325  
     length 3.60584  
     axis 0 0 0   XYZ
    dof ry rz
    limits (-20.0 10.0)
           (0.0 20.0)
  end
  begin
     id 18 
     name lhumerus
     direction 1 -4.48965e-011 1.48782e-027   
     length 4.95681   
     axis 180 -30 -90   XYZ
    dof rx ry rz
    limits (-60.0 90.0)
           (-90.0 90.0)
           (-90.0 90.0)
  end
  begin
     id 19
     name lradius
     direction 1 -4.48952e-011 2.06528e-027   
     length 3.40915   
     axis 180 -30 -90   XYZ
    dof rx
    limits (-10.0 170.0)
  end
  begin
     id 20
     name lwrist
     direction 1 -4.48964e-011 1.28021e-027   
     length 1.70457   
     axis -1.61767e-015 90 90   XYZ
    dof ry
    limits (-180.0 0.0)
 end
  begin
     id 21 
     name lhand
     direction 1 -4.49094e-011 2.54887e-027   
     length 0.616403   
     axis -1.63363e-015 90 90   XYZ
    dof rx rz
    limits (-90.0 90.0)
           (-45.0 45.0)
  end
  begin
     id 22 
     name lfingers
     direction 1 -4.49002e-011 5.11407e-027   
     length 0.49696   
     axis -3.26723e-015 90 90   XYZ
    dof rx
    limits (0.0 90.0)
  end
  begin
     id 23
     name lthumb
     direction 0.707107 -6.34998e-011 0.707107   
     length 0.713539   
     axis -90 45 -2.25915e-014   XYZ
    dof rx rz
    limits (-45.0 45.0)
           (-45.0 45.0)
  end
  begin
     id 24 
     name rclavicle
     direction -0.937751 0.334612 -0.0930482   
     length 3.46287  
     axis 0 0 0   XYZ 
    dof ry rz
    limits (-10.0 20.0)
           (-20.0 0.0)
  end
  begin
     id 25 
     name rhumerus
     direction -1 -4.48962e-011 3.59972e-027  
     length 5.352   
     axis 180 30 90   XYZ
    dof rx ry rz
    limits (-90.0 60.0)
           (-90.0 90.0)
           (-90.0 90.0)
  end
  begin
     id 26 
     name rradius
     direction -1 -4.48987e-011 -3.76925e-027   
     length 3.43721   
     axis 180 30 90   XYZ
    dof rx
    limits (-10.0 170.0)
  end
  begin
     id 27 
     name rwrist
     direction -1 -4.48943e-011 1.28112e-027   
     length 1.7186   
     axis -1.61767e-015 -90 -90   XYZ
    dof ry
    limits (-180.0 0.0)
  end
  begin
     id 28
     name rhand
     direction -1 -4.49027e-011 2.55483e-027   
     length 0.72009   
     axis -1.63363e-015 -90 -90   XYZ
    dof rx rz
    limits (-90.0 90.0)
           (-45.0 45.0)
  end
  begin
     id 29
     name rfingers
     direction -1 -4.48827e-011 5.14506e-027   
     length 0.580555   
     axis -3.26723e-015 -90 -90   XYZ
    dof rx
    limits (0.0 90.0)
  end
  begin
     id 30
     name rthumb
     direction -0.707107 -6.34936e-011 0.707107   
     length 0.833564   
     axis -90 -45 2.25915e-014   XYZ
    dof rx rz
    limits (-45.0 45.0)
           (-45.0 45.0)
  end
:hierarchy
  begin
    root lhipjoint rhipjoint lowerback
    lhipjoint lfemur
    lfemur ltibia
    ltibia lfoot
    lfoot ltoes
    rhipjoint rfemur
    rfemur rtibia
    rtibia rfoot
    rfoot rtoes
    lowerback upperback
    upperback thorax
    thorax lowerneck lclavicle rclavicle
    lowerneck upperneck
    upperneck head
    lclavicle lhumerus
    lhumerus lradius
    lradius lwrist
    lwrist lhand lthumb
    lhand lfingers
    rclavicle rhumerus
    rhumerus rradius
    rradius rwrist
    rwrist rhand rthumb
    rhand rfingers
  end

#!OML:ASF H:\Terrain\Patient Classification 1\Terrain2\Thursday\justin.ASF
:FULLY-SPECIFIED
:DEGREES
525
root 30.4951 17.4128 -7.46761 360.299 -5.90212 351.308
lowerback 5.7851 0.18582 7.75615
upperback 1.9543 0.743788 4.51103
thorax -1.18172 0.367606 0.269735
lowerneck -13.3655 -3.14966 -10.361
upperneck 36.8948 -3.64975 5.16799
head 15.5354 -2.3179 3.42557
rclavicle 7.45443e-015 -2.22639e-014
rhumerus -30.2937 -8.62542 -73.6337
rradius 29.1501
rwrist -10.9889
rhand -22.9144 11.4499
rfingers 7.12502
rthumb 3.52576 -18.5007
lclavicle 7.45443e-015 -2.22639e-014
lhumerus -36.1992 19.5974 79.4415
lradius 20.2056
lwrist -9.95342
lhand -14.4484 23.1963
lfingers 7.12502
lthumb 11.6967 52.8498
rfemur 17.903 -1.55504 32.3108
rtibia 2.58553
rfoot -14.5975 -2.41531
rtoes 3.5598
lfemur -31.0041 0.537069 -6.64023
ltibia 25.3047
lfoot -12.6472 -3.78776
ltoes -11.6955
526
root 30.5098 17.3946 -7.38497 360.34 -5.80857 351.171
lowerback 5.76125 0.199902 7.86747
upperback 1.91034 0.770216 4.53949
thorax -1.21136 0.379247 0.236145
lowerneck -13.5568 -3.19567 -10.4349
upperneck 36.9776 -3.69862 5.23047
head 15.6323 -2.34015 3.46008
rclavicle -1.25234e-014 1.19271e-014
rhumerus -30.2317 -8.78914 -73.592
rradius 29.0439
rwrist -10.7797
rhand -23.5321 10.9339
rfingers 7.12502
rthumb 2.92925 -19.0258
lclavicle -1.25234e-014 1.19271e-014
lhumerus -36.0271 18.2497 80.4389
lradius 20.3292
lwrist -5.86803
lhand -16.8768 22.289
lfingers 7.12502
lthumb 9.35419 52.0614
rfemur 18.0772 -1.4425 32.4319
rtibia 2.81373
rfoot -14.8245 -2.46696
rtoes 3.74677
lfemur -30.8962 0.563891 -6.56938
ltibia 25.6988
lfoot -12.3134 -3.80735
ltoes -12.2458
527
root 30.523 17.3703 -7.30237 360.4 -5.8712 350.63
lowerback 5.74025 0.257561 8.43271
upperback 1.84385 0.882338 4.61581
thorax -1.25382 0.432472 -0.0032938
lowerneck -13.4017 -3.19617 -10.5501
upperneck 36.9809 -3.77485 5.4755
head 15.6136 -2.3575 3.57541
rclavicle -1.3418e-015 -7.15625e-015
rhumerus -30.2807 -9.02263 -73.5877
rradius 28.966
rwrist -10.7348
rhand -23.5164 10.321
rfingers 7.12502
rthumb 2.9444 -19.6384
lclavicle -1.3418e-015 -7.15625e-015
lhumerus -36.0852 17.4895 80.7015
lradius 20.5837
lwrist -4.49059
lhand -17.5762 21.419
lfingers 7.12502
lthumb 8.67934 51.2206
rfemur 18.0135 -1.20422 33.0438
rtibia 3.5897
rfoot -15.1019 -2.73157
rtoes 3.20415
lfemur -30.6808 0.447019 -5.92548
ltibia 26.0039
lfoot -11.9065 -3.63068
ltoes -11.5358
528
root 30.5381 17.362 -7.21532 360.401 -6.01548 350.447
lowerback 5.78617 0.329319 8.6448
upperback 1.77942 1.00037 4.58598
thorax -1.33461 0.487302 -0.159264
lowerneck -13.2971 -3.18914 -10.47
upperneck 36.9936 -3.80447 5.48468
head 15.5952 -2.35907 3.56082
rclavicle -2.32081e-014 -2.54444e-014
rhumerus -30.3036 -9.53369 -73.4466
rradius 28.7282
rwrist -10.6438
rhand -22.8453 10.8912
rfingers 7.12502
rthumb 3.59248 -19.0583
lclavicle -2.32081e-014 -2.54444e-014
lhumerus -36.1015 17.3774 80.5442
lradius 20.5789
lwrist -4.7627
lhand -16.7171 22.1834
lfingers 7.12502
lthumb 9.50828 51.9489
rfemur 18.0607 -0.880878 33.2479
rtibia 4.20271
rfoot -15.1014 -3.07135
rtoes 2.61632
lfemur -30.3662 0.54677 -5.77034
ltibia 26.235
lfoot -11.3657 -3.41092
ltoes -11.5409
529
root 30.5597 17.3643 -7.11958 360.331 -6.16507 350.872
lowerback 5.76425 0.399216 8.29871
upperback 1.81441 1.06498 4.39563
thorax -1.28524 0.522292 -0.170234
lowerneck -13.3684 -3.18677 -10.41
upperneck 36.8597 -3.79772 5.46615
head 15.542 -2.34591 3.53814
rclavicle -2.73329e-015 1.31198e-014
rhumerus -30.1602 -10.0105 -73.3539
rradius 28.5153
rwrist -10.754
rhand -22.5772 11.7481
rfingers 7.12502
rthumb 3.85135 -18.1969
lclavicle -2.73329e-015 1.31198e-014
lhumerus -36.0731 17.4319 80.444
lradius 20.8332
lwrist -5.09557
lhand -16.1011 23.5235
lfingers 7.12502
lthumb 10.1026 53.261
rfemur 18.6217 -0.526132 32.7376
rtibia 3.89884
rfoot -14.6864 -3.31936
rtoes 2.09073
lfemur -30.0462 0.58924 -6.34646
ltibia 26.4589
lfoot -10.6003 -3.05051
ltoes -11.4245
530
root 30.5831 17.3686 -7.01936 360.245 -6.36985 351.152
lowerback 5.77915 0.506767 8.15405
upperback 1.85341 1.19505 4.20125
thorax -1.24384 0.589504 -0.300362
lowerneck -13.3765 -3.25322 -10.3684
upperneck 36.6823 -3.91979 5.51073
head 15.4692 -2.38113 3.52285
rclavicle -5.61567e-015 -8.34896e-015
rhumerus -30.0723 -10.4034 -73.4215
rradius 28.4281
rwrist -11.0032
rhand -22.8921 11.8356
rfingers 7.12502
rthumb 3.54733 -18.1146
lclavicle -5.61567e-015 -8.34896e-015
lhumerus -35.9823 17.3019 80.2976
lradius 21.0578
lwrist -5.32475
lhand -16.417 22.4525
lfingers 7.12502
lthumb 9.79782 52.2046
rfemur 19.502 -0.121378 32.3807
rtibia 3.04511
rfoot -14.0899 -3.46523
rtoes 1.75633
lfemur -29.7541 0.401571 -6.6747
ltibia 26.6336
lfoot -9.79464 -2.47008
ltoes -10.1378
531
root 30.6021 17.3832 -6.91529 360.259 -6.77771 351.205
lowerback 5.77515 0.638395 8.07965
upperback 1.79415 1.36907 4.15407
thorax -1.29283 0.673404 -0.319846
lowerneck -13.4751 -3.29771 -10.3541
upperneck 36.8458 -3.95307 5.42164
head 15.5762 -2.40845 3.48101
rclavicle -6.95746e-015 -1.27222e-014
rhumerus -30.1585 -10.3546 -73.5593
rradius 28.4605
rwrist -11.0293
rhand -23.3643 11.3794
rfingers 7.12502
rthumb 3.09132 -18.5779
lclavicle -6.95746e-015 -1.27222e-014
lhumerus -35.9383 17.4452 80.1323
lradius 20.969
lwrist -5.52016
lhand -16.4974 21.7108
lfingers 7.12502
lthumb 9.72029 51.4665
rfemur 20.2763 0.486882 32.2984
rtibia 2.15379
rfoot -13.2443 -3.51959
rtoes 1.35395
lfemur -29.5258 0.417438 -6.71917
ltibia 26.728
lfoot -9.01172 -1.95291
ltoes -10.3309
532
root 30.6171 17.4014 -6.80837 360.291 -6.99563 351.374
lowerback 5.57396 0.681427 7.82329
upperback 1.75575 1.39136 4.10868
thorax -1.22449 0.686037 -0.224146
lowerneck -13.5735 -3.24864 -10.4248
upperneck 37.0805 -3.87054 5.46261
head 15.7114 -2.38376 3.53378
rclavicle 2.3059e-014 1.19271e-014
rhumerus -30.3054 -10.1647 -73.7618
rradius 28.5911
rwrist -11.0564
rhand -23.7921 11.0289
rfingers 7.12502
rthumb 2.67816 -18.934
lclavicle 2.3059e-014 1.19271e-014
lhumerus -35.9808 17.7866 79.9193
lradius 21.0906
lwrist -6.05176
lhand -15.207 23.3996
lfingers 7.12502
lthumb 10.9651 53.0932
rfemur 21.2109 0.909696 32.1344
rtibia 0.855341
rfoot -11.9815 -3.68195
rtoes -0.297357
lfemur -29.3992 0.704597 -7.03998
ltibia 26.8047
lfoot -8.28542 -2.06212
ltoes -11.2469
533
root 30.6302 17.4161 -6.70895 360.405 -6.82281 351.629
lowerback 5.3127 0.64091 7.53568
upperback 1.6488 1.30057 3.98938
thorax -1.19934 0.640264 -0.180385
lowerneck -13.3917 -3.21004 -10.4405
upperneck 37.0356 -3.86697 5.56495
head 15.6466 -2.3725 3.58084
rclavicle 8.44835e-015 1.11319e-014
rhumerus -30.4893 -10.5154 -73.8255
rradius 28.5895
rwrist -10.8272
rhand -23.9083 10.3347
rfingers 7.12502
rthumb 2.56594 -19.6296
lclavicle 8.44835e-015 1.11319e-014
lhumerus -36.1193 17.6201 79.7756
lradius 21.3235
lwrist -6.02949
lhand -15.3857 23.3644
lfingers 7.12502
lthumb 10.7927 53.0671
rfemur 21.4469 0.963422 31.8878
rtibia 0.772266
rfoot -11.4652 -3.95159
rtoes -1.33303
lfemur -29.5061 1.11626 -7.6147
ltibia 26.8374
lfoot -7.70091 -2.72584
ltoes -12.1901
534
root 30.646 17.4289 -6.61612 360.49 -6.73816 351.737
lowerback 5.28848 0.666486 7.44495
upperback 1.51778 1.33621 3.88171
thorax -1.31947 0.652713 -0.244582
lowerneck -13.1145 -3.2391 -10.447
upperneck 36.8617 -3.96265 5.63783
head 15.5058 -2.40327 3.59173
rclavicle -1.21259e-014 -2.90226e-014
rhumerus -30.7275 -11.127 -73.7731
rradius 28.5759
rwrist -10.4557
rhand -23.7584 9.44233
rfingers 7.12502
rthumb 2.71067 -20.5202
lclavicle -1.21259e-014 -2.90226e-014
lhumerus -36.065 17.5833 79.5934
lradius 21.2885
lwrist -6.3108
lhand -16.6744 21.5303
lfingers 7.12502
lthumb 9.54952 51.2939
rfemur 20.599 1.08364 31.7887
rtibia 2.99644
rfoot -12.1855 -4.31191
rtoes -1.09983
lfemur -29.4698 1.47702 -7.97705
ltibia 26.7847
lfoot -6.98059 -3.3845
ltoes -12.6375
535
root 30.6602 17.4521 -6.52237 360.497 -6.58492 351.914
lowerback 5.25392 0.690248 7.29195
upperback 1.51188 1.35486 3.74538
thorax -1.30566 0.662859 -0.301629
lowerneck -13.089 -3.31545 -10.5458
upperneck 36.7672 -4.11224 5.81278
head 15.4779 -2.45486 3.65686
rclavicle 1.04362e-015 -3.26007e-014
rhumerus -30.8626 -11.6885 -73.7712
rradius 28.5886
rwrist -10.5319
rhand -23.4409 9.87633
rfingers 7.12502
rthumb 3.01728 -20.0821
lclavicle 1.04362e-015 -3.26007e-014
lhumerus -35.6099 17.9193 79.3593
lradius 20.9377
lwrist -7.01266
lhand -15.6649 21.5766
lfingers 7.12502
lthumb 10.5234 51.2931
rfemur 19.8492 1.12956 31.5921
rtibia 5.05257
rfoot -12.7065 -4.65354
rtoes -1.08326
lfemur -29.2684 1.67124 -8.38044
ltibia 26.6938
lfoot -6.10689 -4.00985
ltoes -11.1814
536
root 30.6708 17.4785 -6.42078 360.477 -6.21367 352.484
lowerback 5.05575 0.567764 6.60243
upperback 1.51484 1.13575 3.61892
thorax -1.21661 0.557402 -0.0351792
lowerneck -13.2554 -3.30983 -10.7007
upperneck 36.8339 -4.06698 5.8857
head 15.5531 -2.4477 3.72613
rclavicle 1.19271e-014 8.34896e-014
rhumerus -30.8449 -11.9496 -73.7183
rradius 28.3954
rwrist -10.8875
rhand -22.8438 10.9805
rfingers 7.12502
rthumb 3.59396 -18.9689
lclavicle 1.19271e-014 8.34896e-014
lhumerus -35.4742 18.1418 79.2861
lradius 20.9748
lwrist -7.23666
lhand -10.6683 26.633
lfingers 7.12502
lthumb 15.34 56.044
rfemur 19.3258 0.973787 30.9661
rtibia 6.58861
rfoot -12.9042 -5.03106
rtoes -2.0797
lfemur -29.0891 1.83491 -9.2871
ltibia 26.6886
lfoot -5.35831 -4.64737
ltoes -9.20722
537
root 30.6862 17.4981 -6.31252 360.413 -6.00653 353.028
lowerback 4.98747 0.488818 5.99163
upperback 1.4304 0.998583 3.48539
thorax -1.28153 0.487421 0.173766
lowerneck -13.35 -3.2604 -10.7046
upperneck 36.9721 -3.94493 5.78187
head 15.6284 -2.41331 3.70724
rclavicle 5.36719e-015 -3.1408e-014
rhumerus -31.0017 -12.2899 -73.6182
rradius 28.1637
rwrist -10.8537
rhand -22.0191 11.8472
rfingers 7.12502
rthumb 4.3903 -18.0873
lclavicle 5.36719e-015 -3.1408e-014
lhumerus -35.7635 17.9466 79.3036
lradius 21.4913
lwrist -7.05629
lhand -15.1279 22.4491
lfingers 7.12502
lthumb 11.0414 52.1387
rfemur 19.1201 0.963612 30.396
rtibia 7.71928
rfoot -12.6658 -5.50654
rtoes -4.68824
lfemur -28.759 1.9266 -10.1069
ltibia 26.8118
lfoot -4.95027 -5.00464
ltoes -7.15991
538
root 30.7021 17.5131 -6.20588 360.412 -5.85413 352.955
lowerback 5.00281 0.441026 6.01407
upperback 1.33196 0.944109 3.48199
thorax -1.39368 0.456535 0.160269
lowerneck -13.3526 -3.23646 -10.7014
upperneck 37.0418 -3.90176 5.75673
head 15.6582 -2.40006 3.70568
rclavicle -1.04113e-014 -1.07344e-014
rhumerus -31.2861 -12.7335 -73.5876
rradius 28.1049
rwrist -10.5887
rhand -21.7058 12.3263
rfingers 7.12502
rthumb 4.69281 -17.6017
lclavicle -1.04113e-014 -1.07344e-014
lhumerus -35.983 17.7355 79.2823
lradius 21.9534
lwrist -6.97911
lhand -15.7435 23.1154
lfingers 7.12502
lthumb 10.4476 52.8358
rfemur 18.8712 0.993669 30.5021
rtibia 8.8322
rfoot -12.3092 -5.93064
rtoes -6.34421
lfemur -28.4174 2.09302 -10.2192
ltibia 26.9862
lfoot -4.8804 -5.31847
ltoes -5.59268
539
root 30.7185 17.5287 -6.09948 360.432 -5.5243 352.72
lowerback 4.95661 0.307235 6.12755
upperback 1.2963 0.771829 3.5829
thorax -1.41155 0.369574 0.211944
lowerneck -13.4463 -3.24263 -10.7453
upperneck 37.0629 -3.85415 5.67051
head 15.6861 -2.39745 3.68427
rclavicle 5.93869e-015 1.19271e-014
rhumerus -31.5159 -12.6557 -73.7595
rradius 28.3196
rwrist -10.5141
rhand -22.2077 11.5576
rfingers 7.12502
rthumb 4.20818 -18.3806
lclavicle 5.93869e-015 1.19271e-014
lhumerus -35.9371 17.8981 79.2746
lradius 22.136
lwrist -7.13862
lhand -13.9859 25.4466
lfingers 7.12502
lthumb 12.1427 55.0743
rfemur 18.4639 0.859409 30.7342
rtibia 10.1312
rfoot -12.1019 -6.21078
rtoes -5.08876
lfemur -28.1714 2.45878 -10.2303
ltibia 27.1371
lfoot -5.01911 -5.75833
ltoes -5.48498
